<svg width="100" height="100" viewBox="0 0 100 100" fill="none" xmlns="http://www.w3.org/2000/svg">
<rect width="100" height="100" rx="25" fill="#FF8B06"/>
<line x1="19.8674" y1="37.1429" x2="19.8674" y2="82.449" stroke="white" stroke-width="3"/>
<line x1="81.5" y1="37.1429" x2="81.5" y2="82.449" stroke="white" stroke-width="3"/>
<line x1="51.2959" y1="46.1225" x2="51.2959" y2="90.2041" stroke="white" stroke-width="3"/>
<path d="M19.5918 81.6354C44.7347 81.4722 51.0204 88.5062 51.0204 92.0436C51.2245 88.5742 57.6327 81.6354 81.6327 81.6354" stroke="white" stroke-width="2"/>
<path d="M19.5918 37.962C44.7347 37.7987 51.0204 44.8327 51.0204 48.3701C51.2245 44.9008 57.6327 37.962 81.6327 37.962" stroke="white" stroke-width="2"/>
<path d="M19.7543 81.1557C19.7543 81.213 19.7543 82.5319 19.8832 84.4998C20.026 86.6796 25.1913 85.2938 27.6885 85.5968C29.8501 85.8592 31.8457 86.4503 35.6279 87.0286C38.1928 87.4208 39.7469 87.81 41.2672 88.173C42.2857 88.4161 43.3068 88.9388 44.538 89.4311C46.136 90.0701 46.8979 90.4444 47.7237 90.8064C48.5851 91.1842 49.501 91.6009 50.3002 91.9499C50.634 92.0957 50.9519 92.3268 51.3704 92.3563C52.344 92.425 53.2067 91.6634 53.9035 91.2006C54.7145 90.662 55.4365 90.1596 57.0688 89.5366C58.5554 88.9692 60.7884 88.5377 62.0483 88.334C63.2924 88.133 64.1469 87.843 64.9878 87.6538C65.8277 87.4647 66.8663 87.178 68.213 86.9157C69.3675 86.6909 71.1746 86.7126 72.5981 86.6118C75.245 86.4246 79.6576 86.2802 80.5445 86.0909C80.734 86.0504 80.9339 85.9902 81.0659 85.7887C81.2552 85.2435 81.3142 84.0296 81.3285 82.6413C81.3429 82.1125 81.3715 81.9406 81.401 81.6766" stroke="white" stroke-width="2" stroke-linecap="round"/>
<path d="M62.8174 27.6436L53.3629 37.0976C53.3252 37.1354 53.2684 37.1544 53.2306 37.1354L40.3158 33.6682C40.259 33.6493 40.2211 33.6115 40.2211 33.5735L36.7421 20.6524C36.7232 20.5957 36.7421 20.5577 36.7798 20.5199L46.2345 11.0657C46.2722 11.0279 46.329 11.0088 46.3669 11.0279L59.2817 14.495C59.3383 14.5138 59.3762 14.5518 59.3762 14.5896L62.8366 27.5107C62.8743 27.5676 62.8554 27.6056 62.8177 27.6434L62.8174 27.6436ZM50.1483 17.3556L37.4604 20.7471C37.4415 20.7471 37.4227 20.7849 37.4415 20.8038L46.7259 30.0873C46.7448 30.1062 46.7827 30.1062 46.7827 30.0684L50.1862 17.3745C50.2051 17.3745 50.1674 17.3367 50.1485 17.3554L50.1483 17.3556Z" fill="#5EBE51"/>
<path d="M55.7143 49.1837C56.1867 48.7796 57.3428 47.6224 59.2265 46.8056C60.9122 46.0746 65 45.3837 69.0357 44.6439C72.003 44.5245 73.0245 44.3878 73.5673 44.3541C73.8408 44.3204 74.1102 44.2531 74.7959 44.1837" stroke="white" stroke-width="2" stroke-linecap="round"/>
<path d="M56.4286 54.2857C56.6306 54.049 57.7816 53.3714 58.8908 52.977C59.8541 52.6345 61.3163 52.0469 64.5969 51.3622C66.6245 51.0214 68.6694 50.6816 69.6561 50.5954C69.8959 50.5786 70.0979 50.5449 70.3061 50.5102" stroke="white" stroke-width="2" stroke-linecap="round"/>
<path d="M57.1428 60.7143C57.75 60.3429 59.9877 59.3245 61.8643 58.9296C63.7453 58.5337 64.9959 57.8918 65.8469 57.6878C66.8489 57.4475 67.751 57.3469 69.2265 57.1102C72.1408 56.6673 72.9551 56.5306 74.6194 56.4291C74.9979 56.3949 75.2 56.3612 75.4081 56.3265" stroke="white" stroke-width="2" stroke-linecap="round"/>
<path d="M57.2449 65.2041C57.4816 65.0357 58.1592 64.4918 58.9597 63.9816C59.6968 63.5118 60.5061 63.1653 62.2668 62.7571C67.7163 61.9061 70.3571 61.3633 71.8842 61.1398C72.1398 61.1224 72.4428 61.1224 72.7551 61.1224" stroke="white" stroke-width="2" stroke-linecap="round"/>
<path d="M57.653 71.0204C58.0245 70.7163 59.1102 70.1041 60.2 69.9153C61.2087 69.7406 63.3163 69.7959 65.3178 69.6265C65.8796 69.5918 66.3581 69.5245 66.8163 69.3888C67.0388 69.3204 67.2408 69.2531 67.653 69.1837" stroke="white" stroke-width="2" stroke-linecap="round"/>
<path d="M57.9592 78.0612C58.0939 77.6888 58.9735 77.0102 61.3826 76.1429C65.2742 74.7418 67.749 74.8306 68.9581 74.7791C70.3361 74.7204 71.9 74.5592 73.3786 74.473C73.7388 74.4561 74.0081 74.4225 74.551 74.4051C75.0939 74.3878 75.902 74.3878 76.7347 74.3878" stroke="white" stroke-width="2" stroke-linecap="round"/>
<path d="M46.0204 48.0612C45.5816 47.6908 44.2918 46.7367 43.2857 46.4128C41.0237 45.6844 37.1143 44.8653 36.1092 44.6607C35.5837 44.4918 35.0367 44.3541 33.753 44.3031C32.7388 44.2857 30.9877 44.2857 29.1837 44.2857" stroke="white" stroke-width="2" stroke-linecap="round"/>
<path d="M46.1224 53.1633C45.9541 52.9265 45.0061 52.3163 42.2898 51.2622C40.4796 50.9184 39.5939 50.8847 39.1362 50.8337C38.8806 50.8163 38.5775 50.8163 38.2653 50.8163" stroke="white" stroke-width="2" stroke-linecap="round"/>
<path d="M46.9388 57.7551C46.4653 57.348 44.2347 56.6714 41.1668 56.0056C38.6816 55.4092 36.502 55.002 33.3347 54.6439C31.8592 54.5918 29.6367 54.5918 27.3469 54.5918" stroke="white" stroke-width="2" stroke-linecap="round"/>
<path d="M46.9388 63.4694C46.2969 63.2337 42.9837 62.149 40.7867 61.7184C40.3102 61.6 39.799 61.4969 39.2051 61.4291C38.9143 61.3949 38.6449 61.3612 38.1633 61.3265" stroke="white" stroke-width="2" stroke-linecap="round"/>
<path d="M46.9388 69.6939C46.8714 69.6939 46.601 69.5592 45.5704 69.052C43.4575 68.0124 39.7847 67.0786 36.2484 66.4837C34.1324 66.1277 32.9306 65.749 31.7729 65.7311C31.499 65.748 31.2632 65.7816 31.0408 65.8327C30.8183 65.8837 30.6163 65.951 30.4081 66.0204" stroke="white" stroke-width="2" stroke-linecap="round"/>
<path d="M46.4286 76.5306C46.4286 76.3286 44.1388 75.3827 40.2821 74.023C36.8113 72.7993 34.302 72.4857 31.9826 72.1781C28.3076 71.6906 27.2163 71.6673 26.3296 71.6158C26.1245 71.599 25.9224 71.5653 25.6837 71.5311C25.4449 71.4969 25.1755 71.4633 24.7959 71.4286" stroke="white" stroke-width="2" stroke-linecap="round"/>
<path d="M23.6734 49.1837C24.0112 49.15 25.2979 49.0816 26.4245 49.1663C27.8877 49.251 29.9857 49.4551 31.6275 49.7097C32.002 49.7949 32.4734 49.8959 32.9592 50" stroke="white" stroke-width="2" stroke-linecap="round"/>
<path d="M71.2245 68.3673C71.7663 68.2316 72.649 68.1633 73.4663 68.0449C73.6714 67.9939 73.8735 67.9265 74.4658 67.8918C75.0581 67.8571 76.0347 67.8571 77.2449 67.9592" stroke="white" stroke-width="2" stroke-linecap="round"/>
<path d="M32.1428 60.4082C32.1428 60.3408 31.503 60.2388 30.3485 60.0862C29.8337 60.001 29.4632 59.9 28.2622 59.8311C27.0612 59.7622 25.0408 59.7286 22.9592 59.6939" stroke="white" stroke-width="2" stroke-linecap="round"/>
<path d="M72.7551 50.102C72.8224 50.102 73.0592 50.0684 73.4831 50.0005C73.7051 49.9663 73.9408 49.9327 74.5 49.9153C75.0592 49.898 75.9347 49.898 76.8367 49.898" stroke="white" stroke-width="2" stroke-linecap="round"/>
<path d="M26.2245 65.9184C26.1571 65.9184 25.9204 65.8847 25.5133 65.8C25.1061 65.6816 24.4265 65.6122 23.6112 65.6291C23.2673 65.6459 23.0653 65.6796 22.551 65.8163" stroke="white" stroke-width="2" stroke-linecap="round"/>
<path d="M26.5306 44.3878C26.4632 44.3878 26.1928 44.3541 25.4653 44.3031C24.9734 44.2857 24.2326 44.2857 23.75 44.3194C23.2673 44.3531 23.0653 44.4204 22.449 44.4898" stroke="white" stroke-width="2" stroke-linecap="round"/>
</svg>
